<svg xmlns="http://www.w3.org/2000/svg" width="928.86" height="598" viewBox="0 0 928.86 598"><defs><style>.cls-1{fill:#ef5050;}.cls-2{fill:#faab18;}.cls-3,.cls-7{fill:none;stroke-miterlimit:10;stroke-width:4px;}.cls-3{stroke:#231f20;}.cls-4{fill:#1d489d;}.cls-5{fill:#46c0c1;}.cls-6{fill:#fff;}.cls-7{stroke:#fff;}</style></defs><title>banner-sm</title><g id="Layer_2" data-name="Layer 2"><g id="Layer_1-2" data-name="Layer 1"><rect x="807.79" y="63.54" width="98.61" height="116.27"/><polygon class="cls-1" points="786.74 598 927.44 598 927.44 284.47 786.74 337.69 786.74 598"/><polygon class="cls-2" points="786.74 100.94 786.74 337.11 927.44 283.89 927.44 100.94 786.74 100.94"/><polyline class="cls-3" points="675.24 308.33 675.24 191.85 752.8 191.85 752.8 281.81"/><polygon points="690.16 314.67 762.52 211.65 762.52 356.1 690.16 314.67"/><polygon class="cls-4" points="762.52 598 667.96 598 667.96 272.47 762.52 345.35 762.52 598"/><circle cx="618.51" cy="535.69" r="16.72"/><path class="cls-2" d="M642.87,515.62a41.07,41.07,0,0,0-61.41-35.7V598h61.41V515.83h0Z"/><path class="cls-4" d="M560.7,515.25h0c0-.07,0-.14,0-.21a41.07,41.07,0,0,1,20.76-35.7V443.7H445.37V598H581.46v-.58H560.7Z"/><path d="M560.7,515.62c0,.07,0,.14,0,.21h0V598h20.76V479.92A41.05,41.05,0,0,0,560.7,515.62Z"/><path class="cls-5" d="M526.1,184.84v36a80.73,80.73,0,1,1,0,161.46v36a116.77,116.77,0,0,0,0-233.54Z"/><circle class="cls-6" cx="526.1" cy="301.61" r="89.96"/><circle class="cls-3" cx="526.1" cy="301.61" r="80.73"/><circle cx="526.1" cy="301.61" r="46.04"/><circle class="cls-6" cx="526.1" cy="301.61" r="19.89"/><path class="cls-3" d="M506.21,394.25H417.69V498.94H381.36V407H293.14V536.2H222.21V498.94h-64v66.89h-83L74.93,583c0,.38-.73.77-.73,1.15H2v13.26"/><polyline class="cls-3" points="927.44 272.63 856.09 201.28 927.44 129.92"/><rect class="cls-7" x="830.57" y="264.19" width="70.35" height="70.35"/><rect x="850.17" y="375.42" width="58.82" height="58.82" transform="translate(632.92 -531.5) rotate(50.53)"/><rect class="cls-7" x="850.82" y="467.76" width="27.94" height="27.94" transform="translate(-125 496.94) rotate(-30)"/><polyline class="cls-3" points="841.52 598 841.52 521.42 879.58 521.42"/><polyline class="cls-7" points="879.58 552.41 900.92 552.41 900.92 598"/><rect class="cls-3" x="310.44" y="426.16" width="29.91" height="29.91"/><rect class="cls-3" x="340.34" y="493.63" width="17.05" height="17.05"/><rect class="cls-3" x="178.96" y="518.97" width="19.42" height="19.42"/><rect class="cls-3" x="469.59" y="409.15" width="25.08" height="25.08"/><rect class="cls-7" x="690.16" y="370.8" width="55.36" height="55.36"/><rect class="cls-5" x="217.02" y="564.55" width="197.21" height="33.45"/><polyline class="cls-3" points="348.87 581.28 348.87 552.41 429.8 552.41 429.8 598"/><polyline class="cls-3" points="786.74 121.69 857.09 166.67 786.74 232.41"/><rect class="cls-3" x="630.17" y="398.48" width="75.48" height="75.48" transform="translate(504.08 -344.52) rotate(45)"/><rect x="469.59" y="481.73" width="50.17" height="116.27"/><rect x="641.57" y="547.83" width="50.17" height="50.17"/><rect x="751.86" y="481.73" width="50.17" height="116.27"/><line class="cls-3" x1="857.09" y1="75.85" x2="857.09"/><line class="cls-3" x1="695.63" y1="192.04" x2="695.63" y2="114.77"/><path class="cls-3" d="M718.7,189.74h1.15V148"/><line class="cls-3" x1="740.61" y1="192.04" x2="740.61" y2="171.25"/><rect class="cls-7" x="490.3" y="490.71" width="21.76" height="21.76"/><circle class="cls-6" cx="581.46" cy="515.39" r="12.34"/></g></g></svg>